<svg width="33" height="39" viewBox="0 0 33 39" fill="none" xmlns="http://www.w3.org/2000/svg">
<path d="M19.5581 26.4787C20.8037 23.6749 22.4724 21.0789 24.5058 18.7815C24.8762 18.1731 25.4164 17.6863 26.0599 17.3811C26.7872 17.0281 27.6119 16.9293 28.402 17.1005C28.408 17.0991 28.4143 17.0991 28.4203 17.1005C28.5423 17.1286 28.6643 17.1603 28.779 17.1957L28.8241 17.2103C29.3426 17.3856 29.8153 17.6746 30.2077 18.0561C30.6001 18.4376 30.9022 18.902 31.092 19.4154C31.2818 19.9287 31.3544 20.478 31.3046 21.023C31.2547 21.5681 31.0837 22.095 30.8039 22.5654C30.6634 22.7739 30.5124 22.975 30.3514 23.168C29.0944 24.7418 27.3916 25.8995 25.4658 26.4896C23.54 27.0796 21.481 27.0746 19.5581 26.4751V26.4787Z" fill="#1A8A9E"/>
<path d="M7.71213 1.89967C8.39159 0.667624 9.6639 0.0698991 10.9813 0.095516C11.5913 0.200423 12.189 0.277273 12.7501 0.490747C14.3365 1.0891 15.7447 2.08087 16.8426 3.37289C17.9404 4.66492 18.6918 6.2148 19.0263 7.87695C13.7699 8.76378 9.86883 7.21457 9.68341 7.13772C9.68026 7.1366 9.67681 7.1366 9.67366 7.13772C9.49265 7.07037 9.31725 6.98879 9.14912 6.89375C8.43522 6.50556 7.87308 5.88798 7.55355 5.14082C7.44986 4.79682 7.35838 4.45283 7.27787 4.09907C7.27696 4.09695 7.27649 4.09466 7.27649 4.09236C7.27649 4.09005 7.27696 4.08777 7.27787 4.08565C7.19183 3.32956 7.34362 2.56546 7.71213 1.89967Z" fill="#1A8A9E"/>
<path d="M5.03567 17.333C8.83795 21.7001 9.0502 26.4441 9.0502 26.4441C9.08192 26.6344 9.1978 29.0253 7.30093 30.1781C6.49408 30.6543 5.53601 30.8049 4.62194 30.5993C3.70787 30.3938 2.90656 29.8474 2.38127 29.0716C2.38127 29.0716 2.38127 29.0631 2.37151 29.0582C0.137962 26.8235 2.87043 19.1628 5.03567 17.333Z" fill="#1A8A9E"/>
<path d="M1.82129 28.3851C2.15853 28.8836 2.61292 29.2918 3.14462 29.5738C3.67631 29.8558 4.26907 30.0031 4.87092 30.0027C8.25113 30.0027 9.95038 26.2284 10.7835 24.7963C10.797 24.7744 10.409 24.6048 10.4176 24.5816C11.3935 22.9104 12.2791 21.41 13.7527 20.167C14.9601 19.1403 16.3057 18.2883 17.7501 17.6358C19.8702 16.6807 22.9894 16.294 25.4681 16.294C26.8894 16.2917 28.3052 16.47 29.6815 16.8246C28.8908 16.666 28.0702 16.7643 27.3394 17.1052C23.2687 18.935 22.41 22.6104 20.8376 26.204C20.8059 26.1894 18.5272 34.2636 10.9238 34.2636C9.00139 34.264 7.11975 33.7092 5.50501 32.666C3.89027 31.6227 2.61112 30.1354 1.82129 28.3827V28.3851Z" fill="url(#paint0_linear_29_43974)"/>
<path d="M32.0247 14.771C30.9464 10.4161 28.5738 7.96787 23.565 7.08591C22.4338 6.90699 21.2935 6.79052 20.1495 6.73703C19.1454 6.6801 18.1388 6.68418 17.1352 6.74923C10.7554 7.1591 10.0601 6.82243 9.88319 6.74923C9.88042 6.7483 9.87742 6.7483 9.87465 6.74923C9.69047 6.68872 9.51402 6.60684 9.34889 6.50526C8.77678 6.13931 8.62674 6.01732 8.31934 5.29883C8.69505 6.55406 8.64626 7.19814 9.28546 8.31309C9.29888 8.33626 9.3123 8.3631 9.32571 8.38505C9.37939 8.47776 9.4477 8.56193 9.49893 8.65342C8.60112 8.50338 7.99608 8.85592 9.88929 11.2346C12.1338 14.0562 18.3575 15.8579 18.3575 15.8579L18.3221 15.8249C20.1357 16.4748 22.0472 16.809 23.9737 16.813C25.3954 16.8101 26.8117 16.9884 28.1883 17.3436C28.1943 17.3424 28.2006 17.3424 28.2066 17.3436C28.3286 17.3705 28.4506 17.4022 28.564 17.4388L28.6091 17.4522C29.1269 17.6281 29.5988 17.9173 29.9906 18.2988C30.3823 18.6803 30.684 19.1444 30.8735 19.6572C31.0631 20.1701 31.1358 20.7188 31.0864 21.2634C31.037 21.8079 30.8666 22.3346 30.5877 22.8049C31.3883 21.6387 31.9291 20.3142 32.1735 18.9209C32.2759 18.3455 32.3277 17.7622 32.3285 17.1777C32.3276 16.366 32.2256 15.5575 32.0247 14.771Z" fill="url(#paint1_linear_29_43974)"/>
<path d="M12.0338 15.5508C11.9682 14.9359 11.8688 14.325 11.7362 13.721C11.7142 13.6356 11.6679 13.4624 11.602 13.2245C11.4666 12.6866 11.3092 12.1596 11.1251 11.6387C11.0824 11.5094 11.0409 11.3789 10.9945 11.2398C10.4919 9.7321 8.31085 5.28207 8.31085 5.28207C8.16493 4.95133 8.07151 4.59986 8.03395 4.24032C8.03225 4.23601 8.03225 4.23122 8.03395 4.2269C7.95117 3.47234 8.10461 2.71068 8.47309 2.04703C9.15255 0.814978 10.1114 0.124538 11.4251 0.152594C10.9541 0.0484092 10.473 -0.00273627 9.99059 0.000112765C7.34128 0.00334267 4.80145 1.05746 2.92845 2.93115C1.05545 4.80484 0.00225964 7.34505 0 9.99436C0 13.0757 0.891712 14.7323 3.46072 17.8014C4.27192 18.7602 9.20866 23.8031 8.31451 27.1711C7.75338 29.2814 6.85923 29.4644 6.636 29.6108C7.99979 29.2546 11.2714 27.3821 11.9521 19.7849C12.0241 18.981 12.129 18.1674 12.129 17.3379C12.1288 16.7409 12.097 16.1444 12.0338 15.5508Z" fill="url(#paint2_linear_29_43974)"/>
<defs>
<linearGradient id="paint0_linear_29_43974" x1="23.7871" y1="16.2342" x2="7.86807" y2="30.4455" gradientUnits="userSpaceOnUse">
<stop stop-color="#51B0CB"/>
<stop offset="1" stop-color="#ABE8E9"/>
</linearGradient>
<linearGradient id="paint1_linear_29_43974" x1="8.29491" y1="6.1698" x2="31.2891" y2="18.0634" gradientUnits="userSpaceOnUse">
<stop stop-color="#51B0CB"/>
<stop offset="1" stop-color="#ABE8E9"/>
</linearGradient>
<linearGradient id="paint2_linear_29_43974" x1="6.06449" y1="0" x2="6.06449" y2="29.6108" gradientUnits="userSpaceOnUse">
<stop stop-color="#ABE8E9"/>
<stop offset="1" stop-color="#51B0CB"/>
</linearGradient>
</defs>
</svg>
